#!OML:ASF F:\VICON\USERDATA\INSTALL\rory3\rory3.ASF
:FULLY-SPECIFIED
:DEGREES
582
root 0.0615611 16.9626 11.0733 -165.317 47.6568 -184.481
lowerback -11.8654 -2.87144 1.38374
upperback -9.10529 -3.09704 -3.98829
thorax -3.24516 -1.37643 -5.24983
lowerneck -8.53775 2.16502 0.113307
upperneck 35.4655 3.41056 7.03962
head 13.1689 3.33153 3.42362
rclavicle 6.83819e-014 -1.90833e-014
rhumerus 345.297 -48.1058 -346.781
rradius 16.1948
rwrist 28.9995
rhand -6.43544 -1.39277
rfingers 7.12502
rthumb 19.4137 -30.4436
lclavicle 6.83819e-014 -1.90833e-014
lhumerus 5.68598 16.8378 30.7723
lradius 15.1108
lwrist -58.2067
lhand 4.10201 25.6723
lfingers 7.12502
lthumb 29.5131 53.3466
rfemur -31.9074 33.2268 21.0113
rtibia 32.6776
rfoot -18.4485 -26.9126
rtoes 38.3686
lfemur -44.0719 -29.2366 25.3478
ltibia 27.9234
lfoot -73.7285 -32.3535
ltoes 49.5874
583
root 0.0276932 17.0336 11.0478 -167.135 51.1486 -186.132
lowerback -11.5793 -2.66983 0.737489
upperback -8.99875 -2.80447 -4.50333
thorax -3.24762 -1.22148 -5.39592
lowerneck -8.7412 2.62126 0.731318
upperneck 35.6 3.97276 6.7881
head 13.2727 3.60457 3.29845
rclavicle 2.3059e-014 -7.95139e-015
rhumerus 346.984 -44.414 -348.342
rradius 16.2161
rwrist 25.3155
rhand -6.38244 -1.57614
rfingers 7.12502
rthumb 19.4647 -30.6219
lclavicle 2.3059e-014 -7.95139e-015
lhumerus 6.27277 16.9722 30.7737
lradius 15.2404
lwrist -58.6353
lhand 4.99685 25.6104
lfingers 7.12502
lthumb 30.367 53.1306
rfemur -31.0774 34.1871 19.639
rtibia 31.9568
rfoot -17.3116 -25.1137
rtoes 37.4434
lfemur -43.9303 -27.7452 23.7783
ltibia 27.4929
lfoot -72.4405 -30.7679
ltoes 49.7882
584
root -0.00787014 17.1162 11.0268 -169.841 54.8347 -188.836
lowerback -11.2159 -3.06324 -0.544976
upperback -9.24394 -3.25272 -4.29258
thorax -3.65222 -1.38574 -4.46311
lowerneck -8.11164 3.58582 -0.369705
upperneck 35.6047 5.65007 6.6676
head 13.0186 4.15596 3.61138
rclavicle 1.01678e-013 4.92986e-014
rhumerus 351.562 -42.0776 -351.525
rradius 16.1721
rwrist 23.3285
rhand -6.39258 -1.37698
rfingers 7.12502
rthumb 19.4549 -30.4237
lclavicle 1.01678e-013 4.92986e-014
lhumerus 4.93079 19.8879 30.5864
lradius 14.9967
lwrist -60.5367
lhand 4.54813 24.2069
lfingers 7.12502
lthumb 29.9389 51.8053
rfemur -30.3138 34.9852 17.7604
rtibia 31.0544
rfoot -15.2523 -23.1747
rtoes 35.3896
lfemur -43.6811 -26.1336 21.5952
ltibia 27.0434
lfoot -70.4928 -29.2232
ltoes 49.8038
585
root -0.0457434 17.1904 11.0076 -172.24 58.6925 -190.973
lowerback -10.8018 -2.85359 -1.21856
upperback -9.30596 -2.97113 -4.41547
thorax -3.89007 -1.22503 -4.17462
lowerneck -8.11498 4.09403 -0.789435
upperneck 35.6627 6.42318 6.69564
head 12.9843 4.42042 3.7827
rclavicle 1.35174e-014 3.33958e-014
rhumerus 353.662 -39.4678 -352.687
rradius 16.2563
rwrist 21.0822
rhand -6.69552 -1.12571
rfingers 7.12502
rthumb 19.1636 -30.2016
lclavicle 1.35174e-014 3.33958e-014
lhumerus 4.95402 19.8213 30.4997
lradius 14.9544
lwrist -59.6244
lhand 4.23021 23.7442
lfingers 7.12502
lthumb 29.6355 51.3968
rfemur -29.4697 35.7686 16.6131
rtibia 29.9001
rfoot -12.9962 -20.9118
rtoes 32.9122
lfemur -43.1228 -24.1628 19.9644
ltibia 26.707
lfoot -68.1711 -27.4094
ltoes 49.7225
586
root -0.0798722 17.2699 10.9856 -174.946 62.698 -193.214
lowerback -10.2471 -2.09153 -1.68643
upperback -9.36138 -1.97166 -5.06775
thorax -4.19863 -0.722611 -4.51773
lowerneck -7.76455 4.12125 0.243969
upperneck 35.5162 6.3198 6.36762
head 12.9153 4.455 3.43803
rclavicle -5.41688e-014 -7.71285e-014
rhumerus 353.364 -37.1423 -352.257
rradius 16.4173
rwrist 19.3263
rhand -7.38314 -0.655931
rfingers 7.12502
rthumb 18.5023 -29.796
lclavicle -5.41688e-014 -7.71285e-014
lhumerus 6.25352 20.1478 31.2794
lradius 15.1442
lwrist -60.5522
lhand 3.92734 23.4683
lfingers 7.12502
lthumb 29.3463 51.172
rfemur -28.4206 36.3454 15.9249
rtibia 28.5814
rfoot -11.0705 -18.4306
rtoes 30.0272
lfemur -42.2128 -22.1025 18.4362
ltibia 26.4536
lfoot -65.7809 -25.3773
ltoes 49.6458
587
root -0.117542 17.3588 10.9524 -178.484 66.5544 -196.303
lowerback -9.79712 -1.52583 -2.04757
upperback -9.38597 -1.24373 -5.61865
thorax -4.43232 -0.360858 -4.84744
lowerneck -7.46846 4.30804 1.19966
upperneck 35.2869 6.46242 5.99719
head 12.8114 4.57137 3.11629
rclavicle -6.26172e-015 3.26007e-014
rhumerus 353.632 -37.084 -352.104
rradius 16.501
rwrist 20.8501
rhand -6.87139 0.950924
rfingers 7.12502
rthumb 18.9945 -28.1416
lclavicle -6.26172e-015 3.26007e-014
lhumerus 7.448 23.5574 32.552
lradius 15.0461
lwrist -65.2019
lhand 3.57653 23.4068
lfingers 7.12502
lthumb 29.0113 51.1686
rfemur -27.3505 36.9016 15.1186
rtibia 27.0686
rfoot -9.66572 -16.1759
rtoes 28.8315
lfemur -41.4568 -20.1175 16.8865
ltibia 26.3884
lfoot -63.2919 -23.2308
ltoes 49.6636
588
root -0.164596 17.4525 10.926 -183.462 70.1369 -201.012
lowerback -9.49025 -1.48181 -2.66031
upperback -9.37364 -1.19343 -5.91454
thorax -4.58087 -0.319395 -4.80969
lowerneck -7.68448 4.8853 2.05343
upperneck 35.2911 7.21437 5.47501
head 12.9071 4.90783 2.86738
rclavicle 3.27995e-014 3.33958e-014
rhumerus 355.467 -34.9158 -353.491
rradius 16.8401
rwrist 19.2135
rhand -7.21397 0.893093
rfingers 7.12502
rthumb 18.665 -28.2314
lclavicle 3.27995e-014 3.33958e-014
lhumerus 6.98256 19.7039 30.4417
lradius 15.3579
lwrist -60.9012
lhand 4.78207 24.1179
lfingers 7.12502
lthumb 30.1621 51.6757
rfemur -26.307 37.1112 14.1779
rtibia 25.4461
rfoot -8.10107 -14.0386
rtoes 28.8221
lfemur -41.0646 -18.1215 15.4052
ltibia 26.4326
lfoot -61.4037 -20.6066
ltoes 49.9583
589
root -0.20606 17.5552 10.8981 -190.256 73.7404 -207.487
lowerback -9.40805 -0.979966 -3.14228
upperback -9.17182 -0.539268 -5.99952
thorax -4.36086 0.0150029 -4.58358
lowerneck -8.21091 5.12907 1.32026
upperneck 35.2347 7.59697 5.50374
head 12.9412 4.94563 3.06242
rclavicle 4.37326e-015 1.98785e-014
rhumerus 356.605 -33.555 -353.325
rradius 17.3197
rwrist 18.0211
rhand -7.71529 0.612817
rfingers 7.12502
rthumb 18.1828 -28.5573
lclavicle 4.37326e-015 1.98785e-014
lhumerus 8.02556 20.7711 31.1666
lradius 15.114
lwrist -61.5408
lhand 4.89904 23.6786
lfingers 7.12502
lthumb 30.2737 51.216
rfemur -25.0737 37.0109 13.538
rtibia 23.7493
rfoot -6.70626 -11.4018
rtoes 28.516
lfemur -40.4025 -15.9907 13.9512
ltibia 26.5008
lfoot -60.0256 -18.1199
ltoes 50.1492
590
root -0.247873 17.6626 10.8715 -201.06 77.1549 -218.003
lowerback -9.34013 -0.285879 -3.22397
upperback -9.00714 0.365207 -6.61463
thorax -4.173 0.446888 -5.13721
lowerneck -8.59515 5.11242 1.00102
upperneck 34.9633 7.43951 5.72369
head 12.8809 4.82422 3.17437
rclavicle -1.41137e-014 1.11319e-014
rhumerus 356.512 -28.3343 -352.736
rradius 17.6535
rwrist 13.2081
rhand -8.73647 0.619951
rfingers 7.12502
rthumb 17.2001 -28.6388
lclavicle -1.41137e-014 1.11319e-014
lhumerus 9.41532 18.6584 30.9932
lradius 15.2111
lwrist -59.286
lhand 4.69322 24.1665
lfingers 7.12502
lthumb 30.0773 51.7397
rfemur -24.0547 36.6972 12.8818
rtibia 22.1185
rfoot -5.05217 -8.57443
rtoes 26.7993
lfemur -39.5092 -13.8681 12.3564
ltibia 26.4216
lfoot -58.2585 -17.8563
ltoes 50.3358
591
root -0.289482 17.7684 10.8359 -217.612 80.0862 -234.201
lowerback -8.45468 -0.167897 -4.02006
upperback -9.59321 0.446262 -6.16889
thorax -5.29703 0.540979 -4.24171
lowerneck -7.82927 5.38849 0.526448
upperneck 34.9065 8.09613 5.20005
head 12.6743 4.97915 3.08494
rclavicle -1.56046e-014 -4.6118e-014
rhumerus 357.715 -18.2632 -352.2
rradius 19.4403
rwrist 4.46862
rhand -9.41543 0.137908
rfingers 7.12502
rthumb 16.5465 -29.1766
lclavicle -1.56046e-014 -4.6118e-014
lhumerus 7.81387 13.968 29.5157
lradius 15.7195
lwrist -54.1485
lhand 4.31207 25.7519
lfingers 7.12502
lthumb 29.7136 53.3907
rfemur -23.0054 35.9649 12.676
rtibia 20.4462
rfoot -3.32433 -6.03884
rtoes 24.7045
lfemur -38.6522 -14.2604 12.4061
ltibia 26.346
lfoot -58.0409 -19.2501
ltoes 50.4862
592
root -0.331943 17.864 10.7929 -242.646 82.015 -258.845
lowerback -8.28659 0.388787 -3.52112
upperback -9.50572 1.11671 -6.60746
thorax -5.25268 0.81796 -4.9631
lowerneck -7.95858 5.42599 0.942675
upperneck 34.6038 8.00468 5.02398
head 12.6091 4.93156 2.91908
rclavicle -1.80894e-014 3.26007e-014
rhumerus 359.331 -27.6891 -353.69
rradius 18.9123
rwrist 14.2818
rhand -8.3625 2.38663
rfingers 7.12502
rthumb 17.56 -26.8403
lclavicle -1.80894e-014 3.26007e-014
lhumerus 8.74599 14.5294 29.3061
lradius 15.6529
lwrist -53.9889
lhand 4.27844 26.0595
lfingers 7.12502
lthumb 29.6815 53.704
rfemur -21.9624 34.7746 13.0568
rtibia 18.9736
rfoot -1.74843 -3.74071
rtoes 24.956
lfemur -37.4563 -13.5129 12.6618
ltibia 25.9658
lfoot -58.6244 -15.9182
ltoes 50.1146
593
root -0.371041 17.9836 10.7544 -273.118 81.5423 -288.918
lowerback -7.93368 0.793369 -3.54032
upperback -9.54356 1.59857 -7.08085
thorax -5.45629 1.03673 -5.45545
lowerneck -8.32568 5.44826 1.35628
upperneck 34.6261 7.88385 4.93807
head 12.7277 4.88591 2.81821
rclavicle 8.94531e-015 2.06736e-014
rhumerus 360.509 -28.4699 -354.823
rradius 18.8983
rwrist 15.7892
rhand -9.27081 3.27799
rfingers 7.12502
rthumb 16.6857 -26.0249
lclavicle 8.94531e-015 2.06736e-014
lhumerus 8.80044 9.03427 27.0329
lradius 16.519
lwrist -48.2233
lhand 5.73846 27.4694
lfingers 7.12502
lthumb 31.0741 54.8567
rfemur -20.8005 33.5765 13.1407
rtibia 17.418
rfoot 0.263221 -1.75787
rtoes 27.7678
lfemur -36.0727 -6.60382 9.61005
ltibia 25.6868
lfoot -55.4985 -9.87571
ltoes 50.0129
594
root -0.398299 18.0882 10.7084 -293.972 78.7159 -309.447
lowerback -7.79271 1.10578 -4.45473
upperback -9.64617 2.01557 -7.44832
thorax -5.64515 1.28756 -5.3348
lowerneck -8.39206 5.36704 1.46664
upperneck 34.5654 7.70175 4.79988
head 12.7339 4.7745 2.71926
rclavicle 1.63003e-014 -4.77083e-014
rhumerus 361.343 -27.6303 -355.32
rradius 19.3149
rwrist 15.9477
rhand -9.60693 3.97223
rfingers 7.12502
rthumb 16.3621 -25.3576
lclavicle 1.63003e-014 -4.77083e-014
lhumerus 8.74334 3.00205 24.73
lradius 17.5987
lwrist -42.1199
lhand 6.73944 29.4006
lfingers 7.12502
lthumb 32.0276 56.601
rfemur -19.5749 32.3174 12.6084
rtibia 15.6003
rfoot 2.46284 -0.721157
rtoes 30.4872
lfemur -35.0361 -10.0773 10.3199
ltibia 25.6104
lfoot -58.0239 -14.1179
ltoes 51.3942
